<svg width="32" height="31" viewBox="0 0 32 31" fill="none" xmlns="http://www.w3.org/2000/svg">
<path d="M7.75186 11.6251C8.05366 11.6245 8.34614 11.7296 8.57853 11.9221L15.5019 17.7088L22.4381 12.1288C22.5702 12.0215 22.7223 11.9414 22.8854 11.893C23.0486 11.8447 23.2198 11.8291 23.389 11.8471C23.5583 11.8651 23.7223 11.9164 23.8716 11.998C24.021 12.0796 24.1528 12.1899 24.2594 12.3226C24.3667 12.4547 24.4468 12.6067 24.4951 12.7699C24.5435 12.9331 24.5591 13.1042 24.5411 13.2735C24.5231 13.4427 24.4718 13.6067 24.3902 13.7561C24.3086 13.9054 24.1983 14.0372 24.0656 14.1438L16.3156 20.3826C16.0845 20.5725 15.7946 20.6764 15.4954 20.6764C15.1962 20.6764 14.9063 20.5725 14.6752 20.3826L6.9252 13.9242C6.7944 13.8158 6.68629 13.6826 6.60704 13.5323C6.52779 13.3821 6.47897 13.2176 6.46338 13.0484C6.44778 12.8793 6.46571 12.7087 6.51614 12.5464C6.56657 12.3842 6.64852 12.2335 6.75728 12.103C6.87747 11.9548 7.029 11.8351 7.20097 11.7525C7.37294 11.6698 7.56107 11.6263 7.75186 11.6251Z" fill="#F7931E"/>
</svg>
