<svg width="64" height="64" viewBox="0 0 64 64" fill="none" xmlns="http://www.w3.org/2000/svg">
<path d="M56.6399 49.1842C58.7711 47.6098 60.16 45.0882 60.16 42.2402C60.16 38.4194 57.7023 35.1042 54.0479 33.9842L49.3951 32.557L51.5008 22.5346C55.9935 20.4546 59.36 16.365 60.4352 11.4114C60.6847 10.253 60.4096 9.06901 59.6672 8.15381C58.9376 7.24501 57.8368 6.72021 56.6591 6.72021H56.4927C54.7647 6.72021 53.3055 7.93621 52.9535 9.67701C52.2879 12.9346 49.7536 15.469 46.5024 16.1474C45.0688 16.4418 43.9743 17.581 43.6416 18.989C43.5968 19.0722 43.5648 19.1618 43.5456 19.2578L41.2672 30.0738L21.632 24.0642L19.808 19.5202H20.8512C23.1168 19.5202 24.96 17.677 24.96 15.4114C24.96 13.485 23.5903 11.7954 21.7087 11.3858L10.8736 9.06901C9.30555 8.72981 7.69275 9.11381 6.44475 10.125C5.19675 11.1298 4.47995 12.6338 4.47995 14.2338C4.47995 17.1522 6.84795 19.5202 9.76635 19.5202H10.656L12.4608 24.0386C11.168 24.493 9.93275 25.1458 8.79355 25.9906C5.23515 28.6146 3.19995 32.6594 3.19995 37.0818C3.19995 41.8242 5.60635 46.0098 9.25435 48.4994C5.79835 49.2418 3.19995 52.3202 3.19995 56.0002C3.19995 56.7042 3.77595 57.2802 4.47995 57.2802H59.52C60.2239 57.2802 60.7999 56.7042 60.7999 56.0002C60.7999 53.037 59.1104 50.4642 56.6399 49.1842ZM47.0272 18.6498C51.2768 17.7666 54.5856 14.445 55.4624 10.189C55.5712 9.65781 55.9935 9.28021 56.4927 9.28021H56.6591C57.2095 9.28021 57.536 9.58101 57.6768 9.76021C57.9264 10.0674 58.0223 10.4706 57.9327 10.8674C56.8191 15.9938 52.7936 20.0194 47.6672 21.133C47.2704 21.2226 46.8607 21.1266 46.5536 20.877C46.3743 20.7362 46.0799 20.4162 46.0799 19.885C46.0799 19.2834 46.4768 18.765 47.0272 18.6498ZM45.3439 23.1362C45.9583 23.5202 46.6559 23.725 47.3727 23.725C47.6479 23.725 47.9296 23.6994 48.2112 23.6354C48.3647 23.6034 48.5247 23.5522 48.6783 23.5138L46.9375 31.8082L43.7248 30.829L45.3439 23.1362ZM9.76635 16.9602C8.26235 16.9602 7.03995 15.7378 7.03995 14.2338C7.03995 13.4082 7.41115 12.6338 8.05115 12.1154C8.54395 11.7186 9.14555 11.5074 9.75995 11.5074C9.95195 11.5074 10.144 11.5266 10.336 11.5714L21.1712 13.8946C21.8816 14.0418 22.4 14.6818 22.4 15.4114C22.4 16.2626 21.7024 16.9602 20.8512 16.9602H9.76635ZM18.592 23.373C17.376 23.2258 16.16 23.245 14.9696 23.4242L13.408 19.5202H17.056L18.592 23.373ZM5.75995 37.0818C5.75995 33.4786 7.41755 30.189 10.3168 28.045C12.288 26.5858 14.5984 25.8306 16.9664 25.8306C18.0736 25.8306 19.1872 25.997 20.288 26.3362L53.2991 36.429C55.8719 37.2162 57.5999 39.5522 57.5999 42.2402C57.5999 45.5938 54.8736 48.3202 51.52 48.3202H16.9984C10.8032 48.3202 5.75995 43.277 5.75995 37.0818ZM5.91995 54.7202C6.48955 52.5122 8.49915 50.8802 10.88 50.8802H53.1199C55.5008 50.8802 57.5103 52.5122 58.0799 54.7202H5.91995ZM22.2719 43.2642L24.1408 44.8258C24.16 44.8386 24.1792 44.8514 24.1984 44.8642C24.224 44.8834 24.256 44.9026 24.288 44.9218C24.3264 44.9474 24.3648 44.9666 24.4032 44.9858C24.4352 45.005 24.4672 45.0178 24.4928 45.0306C24.544 45.0498 24.5888 45.0626 24.6399 45.0754C24.6656 45.0818 24.6912 45.0882 24.7232 45.0946C24.8 45.1138 24.8768 45.1202 24.96 45.1202H28.16C28.864 45.1202 29.44 44.5442 29.44 43.8402C29.44 43.1362 28.864 42.5602 28.16 42.5602H25.4208L23.9104 41.2994C24.576 40.1666 24.96 38.8482 24.96 37.4402C24.96 33.2034 21.5168 29.7602 17.28 29.7602C13.0432 29.7602 9.59995 33.2034 9.59995 37.4402C9.59995 41.677 13.0432 45.1202 17.28 45.1202C19.1872 45.1202 20.9279 44.4162 22.2719 43.2642ZM12.16 37.4402C12.16 34.6178 14.4576 32.3202 17.28 32.3202C20.1024 32.3202 22.4 34.6178 22.4 37.4402C22.4 38.221 22.2208 38.9634 21.9008 39.629L18.0992 36.4546C17.5552 36.0066 16.7488 36.077 16.2944 36.621C15.8464 37.165 15.9168 37.9714 16.4608 38.4258L20.2624 41.5938C19.424 42.2018 18.3936 42.5602 17.28 42.5602C14.4576 42.5602 12.16 40.2626 12.16 37.4402ZM33.28 43.8402C33.28 43.1362 33.856 42.5602 34.5599 42.5602H35.84C36.5439 42.5602 37.1199 43.1362 37.1199 43.8402C37.1199 44.5442 36.5439 45.1202 35.84 45.1202H34.5599C33.856 45.1202 33.28 44.5442 33.28 43.8402ZM40.9599 43.8402C40.9599 43.1362 41.5359 42.5602 42.24 42.5602H43.52C44.2239 42.5602 44.7999 43.1362 44.7999 43.8402C44.7999 44.5442 44.2239 45.1202 43.52 45.1202H42.24C41.5359 45.1202 40.9599 44.5442 40.9599 43.8402ZM48.6399 43.8402C48.6399 43.1362 49.216 42.5602 49.9199 42.5602H51.2C51.9039 42.5602 52.4799 43.1362 52.4799 43.8402C52.4799 44.5442 51.9039 45.1202 51.2 45.1202H49.9199C49.216 45.1202 48.6399 44.5442 48.6399 43.8402Z" fill="#F7931E"/>
</svg>
