<svg width="31" height="30" viewBox="0 0 31 30" fill="none" xmlns="http://www.w3.org/2000/svg">
<g clip-path="url(#clip0_406_291)">
<path d="M29.3219 7.22988C29.0081 8.23263 28.549 9.18398 27.9594 10.0536L27.9831 10.0161C27.4231 10.9495 26.7544 12.0278 25.9769 13.2511C25.3102 14.217 24.9573 14.717 24.9181 14.7511C24.7399 14.9742 24.6247 15.241 24.5844 15.5236L24.5831 15.5324C24.6149 15.7871 24.7332 16.0231 24.9181 16.2011L25.4181 16.7586C28.0931 19.5078 29.5977 21.4028 29.9319 22.4436C29.9952 22.6146 30.0156 22.7985 29.9912 22.9792C29.9668 23.1599 29.8983 23.3319 29.7919 23.4799L29.7944 23.4761C29.6685 23.6059 29.5151 23.7058 29.3455 23.7683C29.1759 23.8309 28.9943 23.8545 28.8144 23.8374H28.8194H25.5244C25.1031 23.8374 24.7156 23.6899 24.4119 23.4449L24.4156 23.4474C23.9819 23.0918 23.5838 22.6949 23.2269 22.2624L23.2156 22.2474C22.6398 21.5965 22.1289 21.0486 21.6831 20.6036C20.1981 19.192 19.1023 18.4861 18.3956 18.4861C18.1675 18.4657 17.9395 18.5254 17.7506 18.6549L17.7544 18.6524C17.6732 18.7541 17.6137 18.8713 17.5793 18.9968C17.5449 19.1223 17.5364 19.2535 17.5544 19.3824V19.3774C17.5058 19.9606 17.4899 20.5461 17.5069 21.1311V21.1099V22.5586C17.5424 22.7317 17.5302 22.9111 17.4716 23.0778C17.4131 23.2444 17.3103 23.3921 17.1744 23.5049L17.1731 23.5061C16.5401 23.7921 15.8432 23.9072 15.1519 23.8399L15.1681 23.8411C13.2759 23.8087 11.4283 23.2607 9.82437 22.2561L9.86812 22.2811C8.0186 21.1661 6.43332 19.6627 5.22187 17.8749L5.18812 17.8224C4.01216 16.2542 2.97848 14.5843 2.09937 12.8324L2.01187 12.6399C1.42607 11.5054 0.911324 10.3357 0.470615 9.13738L0.395615 8.90613C0.191284 8.28405 0.0612151 7.64 0.00811523 6.98738L0.00561523 6.95613C0.00561523 6.32447 0.377282 6.00863 1.12062 6.00863H4.40812C4.74047 5.9826 5.0704 6.08305 5.33187 6.28988L5.32937 6.28738C5.57937 6.56113 5.76437 6.89738 5.85562 7.27238L5.85937 7.28738C6.40248 8.84278 7.06573 10.3536 7.84312 11.8061L7.75937 11.6349C8.32123 12.7762 9.00119 13.8554 9.78812 14.8549L9.75937 14.8161C10.426 15.6345 10.946 16.0436 11.3194 16.0436L11.3594 16.0449C11.4473 16.045 11.5336 16.022 11.6098 15.9781C11.6859 15.9342 11.7492 15.871 11.7931 15.7949L11.7944 15.7924C11.914 15.4791 11.9615 15.1428 11.9331 14.8086V14.8161V9.96738C11.9097 9.41763 11.7736 8.87855 11.5331 8.38363L11.5431 8.40738C11.3973 8.09284 11.2079 7.80039 10.9806 7.53863L10.9844 7.54363C10.7748 7.33437 10.6384 7.06296 10.5956 6.76988L10.5944 6.76238C10.5944 6.54988 10.6919 6.35863 10.8444 6.23363L10.8456 6.23238C11.0026 6.08866 11.2078 6.00923 11.4206 6.00988H16.6131C16.7435 5.99467 16.8755 6.01206 16.9975 6.0605C17.1195 6.10893 17.2275 6.18689 17.3119 6.28738L17.3131 6.28863C17.471 6.58035 17.5401 6.91188 17.5119 7.24238V7.23613V13.7024C17.492 13.9574 17.5513 14.2124 17.6819 14.4324L17.6794 14.4274C17.7251 14.4958 17.7871 14.5519 17.8597 14.5907C17.9323 14.6295 18.0133 14.6498 18.0956 14.6499H18.0969C18.3077 14.6362 18.511 14.5663 18.6856 14.4474L18.6819 14.4499C19.0219 14.2161 19.3144 13.9499 19.5681 13.6486L19.5731 13.6424C20.3454 12.7686 21.0377 11.8273 21.6419 10.8299L21.6906 10.7424C22.1206 10.0299 22.5856 9.15238 23.0069 8.25113L23.0844 8.06738L23.6419 6.95238C23.74 6.66409 23.9294 6.41558 24.1813 6.24442C24.4332 6.07325 24.7339 5.98874 25.0381 6.00363H25.0344H28.3231C29.2114 6.00363 29.5448 6.41238 29.3231 7.22988H29.3219Z" fill="white"/>
</g>
<defs>
<clipPath id="clip0_406_291">
<rect width="30" height="30" fill="white" transform="translate(0.00195312)"/>
</clipPath>
</defs>
</svg>
